<?xml version="1.0"?>
<svg xmlns="http://www.w3.org/2000/svg" height="512px" viewBox="0 -2 512 512" width="512px" class=""><g><script xmlns="" class="active-path" style="fill:#FF00DB" data-old_color="#831C1C"/><path d="m0 92.203125v323.082031l256 92.203125 256-92.203125v-323.082031l-256-92.203125zm452.832031 10.578125-196.832031 71.242188-196.832031-71.242188 196.832031-70.894531zm-422.832031 21.347656 211 76.371094v269.699219l-211-75.996094zm241 346.070313v-269.699219l211-76.371094v270.074219zm0 0" data-original="#000000" class="active-path" data-old_color="#831C1C" fill="#FF00DB"/><path d="m256 127.527344c13.664062 0 24.78125-11.117188 24.78125-24.78125 0-13.664063-11.117188-24.78125-24.78125-24.78125s-24.78125 11.117187-24.78125 24.78125c0 13.664062 11.117188 24.78125 24.78125 24.78125zm0 0" data-original="#000000" class="active-path" data-old_color="#831C1C" fill="#FF00DB"/><path d="m321.640625 213.183594c-13.664063 0-24.78125 11.117187-24.78125 24.78125 0 13.664062 11.117187 24.78125 24.78125 24.78125s24.78125-11.117188 24.78125-24.78125c0-13.664063-11.117187-24.78125-24.78125-24.78125zm0 0" data-original="#000000" class="active-path" data-old_color="#831C1C" fill="#FF00DB"/><path d="m437.375 335.441406c-6.601562.5-12.609375 3.539063-16.925781 8.558594-4.3125 5.019531-6.414063 11.421875-5.914063 18.019531.980469 12.996094 11.867188 22.914063 24.691406 22.914063.625 0 1.253907-.023438 1.886719-.070313 6.601563-.5 12.613281-3.539062 16.925781-8.558593 4.3125-5.023438 6.414063-11.421876 5.914063-18.023438-1.027344-13.625-12.941406-23.867188-26.578125-22.839844zm0 0" data-original="#000000" class="active-path" data-old_color="#831C1C" fill="#FF00DB"/><path d="m192.128906 268.746094c13.660156 0 24.777344-11.117188 24.777344-24.78125 0-13.664063-11.117188-24.78125-24.777344-24.78125-13.667968 0-24.78125 11.117187-24.78125 24.78125 0 13.664062 11.117188 24.78125 24.78125 24.78125zm0 0" data-original="#000000" class="active-path" data-old_color="#831C1C" fill="#FF00DB"/><path d="m80.390625 330.441406c-6.59375-.503906-12.996094 1.601563-18.019531 5.914063-5.019532 4.316406-8.058594 10.328125-8.558594 16.925781-1.03125 13.625 9.214844 25.546875 22.839844 26.582031.632812.046875 1.261718.070313 1.886718.070313 12.824219 0 23.710938-9.921875 24.695313-22.914063.5-6.601562-1.601563-13-5.917969-18.019531-4.3125-5.019531-10.324218-8.058594-16.925781-8.558594zm0 0" data-original="#000000" class="active-path" data-old_color="#831C1C" fill="#FF00DB"/><path d="m194.417969 373.082031c-13.664063 0-24.78125 11.117188-24.78125 24.78125 0 13.664063 11.117187 24.78125 24.78125 24.78125 13.664062 0 24.78125-11.117187 24.78125-24.78125 0-13.664062-11.113281-24.78125-24.78125-24.78125zm0 0" data-original="#000000" class="active-path" data-old_color="#831C1C" fill="#FF00DB"/><path d="m74.363281 225.964844c.632813.046875 1.261719.070312 1.886719.070312 12.820312 0 23.710938-9.921875 24.691406-22.914062.5-6.597656-1.601562-13-5.914062-18.019532-4.316406-5.019531-10.328125-8.058593-16.925782-8.558593-13.625-1.035157-25.550781 9.21875-26.582031 22.84375-.496093 6.597656 1.601563 13 5.917969 18.019531 4.3125 5.019531 10.324219 8.058594 16.925781 8.558594zm0 0" data-original="#000000" class="active-path" data-old_color="#831C1C" fill="#FF00DB"/><path d="m395.589844 281.554688c-5.019532-4.316407-11.421875-6.429688-18.019532-5.917969-6.597656.5-12.609374 3.539062-16.925781 8.558593-4.316406 5.019532-6.414062 11.417969-5.917969 18.019532.984376 12.996094 11.871094 22.914062 24.695313 22.914062.625 0 1.253906-.023437 1.886719-.070312 13.625-1.03125 23.871094-12.953125 22.839844-26.578125-.496094-6.601563-3.539063-12.613281-8.558594-16.925781zm0 0" data-original="#000000" class="active-path" data-old_color="#831C1C" fill="#FF00DB"/></g> </svg>
